<?xml version="1.0" encoding="UTF-8"?>
<svg id="Calque_1" data-name="Calque 1" xmlns="http://www.w3.org/2000/svg" viewBox="0 0 682.59 707.06">
  <defs>
    <style>
      .cls-1 {
        fill-rule: evenodd;
      }
    </style>
  </defs>
  <path class="cls-1" d="M282,238c58.89.77,100.75.71,114-44l4-36h22v193h-18c1.22-80.37-41.01-92.19-122-91v80l-75-107v-34c0-36.57,7.38-112.76-6-137-7.1-12.87-18.71-22.23-36-25-24.03-3.84-50.03,27.27-31,46,1.12-14.16,8.7-19.79,25-19,46.25,21.09-28.24,69.52-48,21-5.47-13.44-1.89-29.23,4-39C141.82,1.52,205.85,11.28,244,37c29.98-14.37,63.82-19.56,104-26,46.53-7.46,76.49,21.21,122,13,22.3-4.02,33.73-13.96,49-24h3v5c-5.85,15.74-15.43,36.95-11,61,5.79,31.47,27.79,82.17-1,106-18.82,15.58-53.81,11.7-62-11-9.95-27.59,26.62-48.96,37-26,6.3,10.04-2.3,20.26-10,23v1c32.6,5.75,34.01-29.78,22-53-16.52-31.94-85.42-82.68-142-73-27.69,4.74-53.38,11.37-66,31-13.67,21.26-7.34,135.39-7,174Z"/>
  <path class="cls-1" d="M311,707c-33.22,1.65-69.33-33-70-33-15.08,15.56-30.16,21.52-49,25-39.94,3.47-89.52,1.75-129,2-23.58.15-57.44,1.57-63-3v-13l2-3c21.78.24,40.81-3.61,51-15,19.48-21.79,19-68.37,19-109v-225c0-36.55,6.95-112.29-8-134-11.64-16.9-38.61-19.83-64-23v-15l2-4,136,1,241,351h1l130-259c8.15-17.81,34.49-84.62,48-92h123c1.86,5.2,1.94,10.84,1,17l-2,1c-27.38,4.96-52.61,6.33-64,27-12.63,22.92-5,77.07-5,109v246c0,35.11-4.78,83.22,10,105,13.04,19.21,41.52,17.58,58,20l3,2c.24,6.44-.16,12.23-2,16h-143c-18.01,0-47.98,4.31-62-2-.39-6.77-1-13.32,3-16,13.09-1.15,41.09.85,55-22,13.67-22.45,10-66.17,10-101v-219l-1-102v2l-179,363-11-1L101,245l1,337c1.73,43.29.28,81.61,36,99,22.25,10.84,47.68-2.99,57-17,21.11-31.71,12.37-182.64,12-240l76,108v34c0,37.17-1.44,76.86,13,100,9.84,15.76,48.67,27.46,55,0-5.19,3.69-7.56,5.93-17,6-5.05-2.43-8.64-4.84-11-10-6.14-19.89,17.52-32.72,35-23,10.6,5.89,14.12,27.31,9,39-8.56,19.54-29.04,27.66-56,29Z"/>
</svg>